<svg width="173" height="19" viewBox="0 0 173 19" fill="none" xmlns="http://www.w3.org/2000/svg">
<path d="M10.81 10.77H4.13V15.07H11.59V18.43H0V0.300049H11.21V3.66005H4.13V7.43005H10.81V10.77Z" fill="#FF3300"/>
<path d="M14.39 18.44V0.300049H19.19L22.97 6.95005C24.05 8.86005 25.13 11.12 25.94 13.17H26.02C25.75 10.78 25.67 8.33005 25.67 5.61005V0.310049H29.44V18.45H25.13L21.25 11.45C20.17 9.51005 18.99 7.17005 18.09 5.05005L18 5.07005C18.11 7.46005 18.16 10.02 18.16 12.98V18.44H14.39Z" fill="#FF3300"/>
<path d="M48.15 17.6001C46.88 18.0301 44.48 18.6201 42.08 18.6201C38.76 18.6201 36.36 17.7901 34.69 16.1701C33.02 14.6101 32.1 12.2401 32.13 9.58011C32.16 3.55011 36.55 0.110107 42.51 0.110107C44.86 0.110107 46.66 0.570107 47.55 1.00011L46.7 4.28011C45.7 3.85011 44.46 3.50011 42.47 3.50011C39.05 3.50011 36.46 5.44011 36.46 9.36011C36.46 13.1001 38.81 15.3101 42.18 15.3101C43.12 15.3101 43.88 15.2001 44.2 15.0401V11.2401H41.4V8.04011H48.17V17.6001H48.15Z" fill="#FF3300"/>
<path d="M55.48 0.300049V18.44H51.36V0.300049H55.48Z" fill="#FF3300"/>
<path d="M59.03 0.549922C60.35 0.329922 62.32 0.169922 64.5 0.169922C67.2 0.169922 69.08 0.569922 70.38 1.59992C71.46 2.45992 72.05 3.71992 72.05 5.38992C72.05 7.69992 70.41 9.28992 68.84 9.85992V9.93992C70.11 10.4499 70.81 11.6599 71.27 13.3299C71.84 15.3799 72.4 17.7399 72.75 18.4399H68.55C68.25 17.9299 67.82 16.4499 67.28 14.2099C66.79 11.9499 66.01 11.3299 64.34 11.2999H63.1V18.4299H59.03V0.549922ZM63.1 8.34992H64.72C66.77 8.34992 67.98 7.32992 67.98 5.73992C67.98 4.06992 66.85 3.23992 64.96 3.20992C63.96 3.20992 63.4 3.28992 63.1 3.34992V8.34992Z" fill="white"/>
<path d="M78.97 0.300049V10.74C78.97 13.86 80.16 15.45 82.26 15.45C84.42 15.45 85.6 13.94 85.6 10.74V0.300049H89.7V10.47C89.7 16.07 86.87 18.73 82.13 18.73C77.55 18.73 74.85 16.2 74.85 10.42V0.300049H78.97Z" fill="white"/>
<path d="M93.25 18.44V0.300049H98.05L101.83 6.95005C102.91 8.86005 103.99 11.12 104.79 13.17H104.87C104.6 10.78 104.52 8.33005 104.52 5.61005V0.310049H108.29V18.45H103.98L100.1 11.45C99.02 9.51005 97.83 7.17005 96.95 5.05005L96.87 5.08005C96.98 7.47005 97.03 10.03 97.03 12.99V18.45H93.25V18.44Z" fill="white"/>
<path d="M111.83 18.44V0.300049H116.63L120.41 6.95005C121.49 8.86005 122.56 11.12 123.38 13.17H123.46C123.19 10.78 123.11 8.33005 123.11 5.61005V0.310049H126.88V18.45H122.57L118.69 11.45C117.61 9.51005 116.43 7.17005 115.54 5.05005L115.46 5.08005C115.57 7.47005 115.62 10.03 115.62 12.99V18.45H111.83V18.44Z" fill="white"/>
<path d="M141.24 10.77H134.55V15.07H142.02V18.43H130.43V0.300049H141.64V3.66005H134.55V7.43005H141.24V10.77Z" fill="white"/>
<path d="M144.81 0.549922C146.13 0.329922 148.1 0.169922 150.28 0.169922C152.97 0.169922 154.86 0.569922 156.16 1.59992C157.24 2.45992 157.83 3.71992 157.83 5.38992C157.83 7.69992 156.19 9.28992 154.62 9.85992V9.93992C155.89 10.4499 156.59 11.6599 157.05 13.3299C157.62 15.3799 158.18 17.7399 158.53 18.4399H154.32C154.02 17.9299 153.59 16.4499 153.05 14.2099C152.56 11.9499 151.78 11.3299 150.11 11.2999H148.87V18.4299H144.8V0.549922H144.81ZM148.88 8.34992H150.5C152.55 8.34992 153.76 7.32992 153.76 5.73992C153.76 4.06992 152.63 3.23992 150.74 3.20992C149.74 3.20992 149.18 3.28992 148.88 3.34992V8.34992Z" fill="white"/>
<path d="M160.92 14.21C162.02 14.78 163.72 15.34 165.48 15.34C167.37 15.34 168.37 14.56 168.37 13.37C168.37 12.24 167.51 11.59 165.32 10.81C162.3 9.76 160.33 8.09 160.33 5.46C160.33 2.37 162.92 0 167.2 0C169.25 0 170.76 0.43 171.84 0.91L170.92 4.22C170.19 3.87 168.9 3.36 167.12 3.36C165.34 3.36 164.48 4.17 164.48 5.11C164.48 6.27 165.5 6.78 167.85 7.67C171.06 8.85 172.57 10.52 172.57 13.08C172.57 16.12 170.22 18.7 165.24 18.7C163.16 18.7 161.12 18.16 160.09 17.6L160.92 14.21Z" fill="white"/>
</svg>
